# xmcd
#
# Track frame offsets:
#	150
#	18237
#	30815
#	46746
#	60947
#	74878
#	90741
#	108893
#	124348
#	139892
#	158768
#
# Disc length: 2298 seconds
# Revision: 0
# Processed by: cddbd v1.5.2PL0 Copyright (c) Steve Scherf et al.
# Submitted via: dBpowerAMP V12.0
#
DISCID=8808f80b
DTITLE=Brenn Hill - Rangefire
DYEAR=1997
DGENRE=Country
TTITLE0=Call You Cowboy
TTITLE1=Powder River Queen
TTITLE2=Nights Like This
TTITLE3=M. C. Horses
TTITLE4=Lady Idaho
TTITLE5=On Avon
TTITLE6=The Cattle and the Train
TTITLE7=Rewin the West
TTITLE8=Standing Deer's Lament
TTITLE9=Rangefire
TTITLE10=Hill Family Song
EXTD=
EXTT0=
EXTT1=
EXTT2=
EXTT3=
EXTT4=
EXTT5=
EXTT6=
EXTT7=
EXTT8=
EXTT9=
EXTT10=
PLAYORDER=
